<svg width="12" height="13" viewBox="0 0 12 13" fill="none" xmlns="http://www.w3.org/2000/svg">
<path d="M4.52941 10.7725C2 11.6317 2 9.23808 1 8.9312M8.05882 12V9.85184C8.05882 9.23808 8.11765 8.99258 7.76471 8.62432C9.41177 8.44019 11 7.76506 11 4.94176C10.9993 4.20829 10.725 3.50391 10.2353 2.97773C10.465 2.34062 10.4438 1.63459 10.1765 1.0137C10.1765 1.0137 9.52941 0.829568 8.11765 1.81158C6.92191 1.48665 5.66633 1.48665 4.47059 1.81158C3.05882 0.829568 2.41176 1.0137 2.41176 1.0137C2.1444 1.63459 2.12325 2.34062 2.35294 2.97773C1.86321 3.50391 1.58895 4.20829 1.58824 4.94176C1.58824 7.76506 3.17647 8.44019 4.82353 8.62432C4.47059 8.99258 4.47059 9.36083 4.52941 9.85184V12" stroke="#676987" stroke-linecap="round" stroke-linejoin="round"/>
</svg>
