<svg width="11" height="13" viewBox="0 0 11 13" fill="none" xmlns="http://www.w3.org/2000/svg">
<path d="M3.00388 1.31527C2.48146 1.67738 2.05466 2.16079 1.76008 2.72405C1.46549 3.28732 1.31191 3.91362 1.3125 4.54927C1.3125 5.94752 2.0405 7.17602 3.14125 7.87602C3.5945 8.16302 3.95413 8.68364 3.9305 9.31102V9.31802L3.787 12.2379C3.78426 12.325 3.7642 12.4106 3.728 12.4899C3.6918 12.5692 3.64018 12.6404 3.57615 12.6995C3.51212 12.7586 3.43696 12.8043 3.35506 12.8341C3.27316 12.8638 3.18616 12.877 3.09913 12.8727C3.01211 12.8685 2.92679 12.8469 2.84818 12.8094C2.76956 12.7718 2.6992 12.719 2.64122 12.6539C2.58324 12.5889 2.53879 12.513 2.51047 12.4306C2.48214 12.3482 2.47051 12.261 2.47625 12.174L2.61888 9.26027C2.62063 9.18589 2.57513 9.07127 2.43775 8.98377C1.69047 8.51011 1.07511 7.85517 0.648897 7.07985C0.222685 6.30453 -0.000533513 5.43401 9.57538e-07 4.54927C-0.000398059 3.70377 0.20365 2.87072 0.594752 2.12112C0.985854 1.37152 1.55241 0.727606 2.24613 0.244265C2.4582 0.0916278 2.71143 0.00661608 2.97265 0.000370628C3.23387 -0.00587483 3.49088 0.0669373 3.71 0.209265C4.11425 0.468265 4.375 0.932891 4.375 1.45439V3.92189C4.375 3.99364 4.41088 4.06189 4.47125 4.10214L5.1275 4.54839C5.16367 4.57284 5.20634 4.58591 5.25 4.58591C5.29366 4.58591 5.33633 4.57284 5.3725 4.54839L6.02875 4.10214C6.05843 4.08217 6.08274 4.0552 6.09952 4.02361C6.11631 3.99202 6.12506 3.95679 6.125 3.92102V1.45439C6.125 0.932891 6.38575 0.468265 6.79 0.209265C7.00913 0.0669373 7.26613 -0.00587483 7.52735 0.000370628C7.78857 0.00661608 8.0418 0.0916278 8.25388 0.244265C8.94759 0.727606 9.51415 1.37152 9.90525 2.12112C10.2964 2.87072 10.5004 3.70377 10.5 4.54927C10.5005 5.43401 10.2773 6.30453 9.8511 7.07985C9.42489 7.85517 8.80953 8.51011 8.06225 8.98377C7.92488 9.07127 7.87938 9.18502 7.88113 9.25939L8.02375 12.1731C8.03069 12.289 8.00685 12.4047 7.95466 12.5083C7.90246 12.612 7.82377 12.7001 7.72656 12.7635C7.62935 12.827 7.51708 12.8635 7.40116 12.8696C7.28523 12.8756 7.16978 12.8509 7.0665 12.7979C6.96322 12.7443 6.87605 12.6642 6.81393 12.5658C6.75181 12.4673 6.71698 12.3542 6.713 12.2379L6.5695 9.31102C6.54588 8.68364 6.9055 8.16302 7.35875 7.87602C7.91953 7.52087 8.38131 7.02957 8.70107 6.44788C9.02082 5.8662 9.18817 5.21305 9.1875 4.54927C9.18809 3.91362 9.03451 3.28732 8.73992 2.72405C8.44534 2.16079 8.01854 1.67738 7.49613 1.31527C7.47513 1.33014 7.4375 1.37389 7.4375 1.45527V3.92102C7.43753 4.17094 7.37638 4.41707 7.25939 4.63792C7.14241 4.85877 6.97314 5.04763 6.76638 5.18802L6.11013 5.63427C5.85637 5.80655 5.55672 5.89866 5.25 5.89866C4.94328 5.89866 4.64363 5.80655 4.38988 5.63427L3.73363 5.18802C3.52686 5.04763 3.35759 4.85877 3.24061 4.63792C3.12363 4.41707 3.06248 4.17094 3.0625 3.92102V1.45439C3.0625 1.37389 3.02488 1.33014 3.00388 1.31527Z" fill="#676987"/>
</svg>
