<svg width="14" height="11" viewBox="0 0 14 11" fill="none" xmlns="http://www.w3.org/2000/svg">
<path d="M4.39775 11C9.681 11 12.5711 6.76692 12.5711 3.10242C12.5711 2.98397 12.5711 2.86382 12.5659 2.74536C13.1286 2.35149 13.6142 1.86385 14 1.30529C13.4744 1.52938 12.9174 1.67707 12.3471 1.74357C12.9478 1.39636 13.3978 0.850053 13.6132 0.206191C13.0489 0.529509 12.4311 0.756478 11.7871 0.877155C11.3542 0.431276 10.7812 0.135894 10.1571 0.0367639C9.53292 -0.0623663 8.89238 0.0402871 8.33467 0.328824C7.77696 0.61736 7.33321 1.07568 7.07214 1.63278C6.81108 2.18989 6.74728 2.81469 6.89062 3.4104C5.74852 3.35503 4.63121 3.06813 3.61116 2.56831C2.59111 2.06849 1.6911 1.36692 0.9695 0.509098C0.603173 1.1209 0.491377 1.8446 0.656815 2.53322C0.822254 3.22183 1.25252 3.82375 1.86025 4.21675C1.40485 4.20178 0.959456 4.08353 0.56 3.87153V3.90961C0.560785 4.55052 0.790394 5.17151 1.21001 5.66762C1.62964 6.16373 2.21353 6.50452 2.863 6.63239C2.61648 6.69806 2.36183 6.73079 2.10613 6.72969C1.92586 6.73022 1.74596 6.71407 1.56887 6.68146C1.75244 7.23317 2.10986 7.71555 2.59109 8.06102C3.07232 8.4065 3.65324 8.59777 4.2525 8.60805C3.23449 9.38122 1.97698 9.80056 0.6825 9.79853C0.454406 9.79946 0.22647 9.78674 0 9.76045C1.31383 10.5704 2.83964 11.0005 4.39775 11Z" fill="white"/>
</svg>
