<svg width="12" height="12" viewBox="0 0 12 12" fill="none" xmlns="http://www.w3.org/2000/svg">
<path d="M2.68607 12H0.198214V3.98821H2.68607V12ZM1.4408 2.89533C0.645268 2.89533 0 2.23639 0 1.44084C5.6941e-09 1.0587 0.151799 0.69222 0.422002 0.422011C0.692205 0.151802 1.05868 0 1.4408 0C1.82293 0 2.1894 0.151802 2.45961 0.422011C2.72981 0.69222 2.88161 1.0587 2.88161 1.44084C2.88161 2.23639 2.23607 2.89533 1.4408 2.89533ZM11.9973 12H9.51482V8.09991C9.51482 7.17043 9.49607 5.97844 8.22134 5.97844C6.92786 5.97844 6.72964 6.98828 6.72964 8.03295V12H4.24446V3.98821H6.63054V5.0811H6.66536C6.9975 4.45162 7.80884 3.78732 9.01929 3.78732C11.5371 3.78732 12 5.44539 12 7.59901V12H11.9973Z" fill="white"/>
</svg>
