<svg width="14" height="11" viewBox="0 0 14 11" fill="none" xmlns="http://www.w3.org/2000/svg">
<path d="M1.75 3.81251C1.74994 3.3049 1.87605 2.80523 2.117 2.35845C2.35795 1.91167 2.70618 1.53179 3.13036 1.25297C3.55454 0.974157 4.04138 0.805152 4.54708 0.761158C5.05278 0.717164 5.56149 0.799562 6.02744 1.00094C6.4934 1.20232 6.902 1.51636 7.21648 1.91482C7.53096 2.31328 7.74146 2.78366 7.82906 3.28366C7.91665 3.78366 7.87859 4.29759 7.7183 4.77922C7.558 5.26086 7.2805 5.6951 6.91075 6.04289C7.60796 6.38121 8.2133 6.88268 8.67544 7.50476C9.13758 8.12684 9.4429 8.85119 9.5655 9.61639C9.579 9.70153 9.5756 9.7885 9.55549 9.87233C9.53538 9.95617 9.49895 10.0352 9.44829 10.105C9.39763 10.1747 9.33373 10.2338 9.26023 10.2789C9.18674 10.3239 9.10508 10.3541 9.01994 10.3676C8.93479 10.3811 8.84782 10.3777 8.76399 10.3576C8.68016 10.3375 8.60111 10.301 8.53135 10.2504C8.4616 10.1997 8.40251 10.1358 8.35745 10.0623C8.31239 9.98881 8.28225 9.90716 8.26875 9.82201C8.13751 8.99978 7.71744 8.25127 7.08397 7.71089C6.4505 7.17052 5.64514 6.87368 4.8125 6.87368C3.97986 6.87368 3.1745 7.17052 2.54103 7.71089C1.90756 8.25127 1.48749 8.99978 1.35625 9.82201C1.34269 9.90716 1.31249 9.9888 1.26738 10.0623C1.22227 10.1357 1.16313 10.1996 1.09334 10.2502C1.02354 10.3009 0.94446 10.3372 0.860607 10.3573C0.776754 10.3774 0.689771 10.3807 0.604625 10.3671C0.519479 10.3536 0.437838 10.3234 0.364362 10.2783C0.290886 10.2332 0.227015 10.174 0.176396 10.1042C0.125776 10.0344 0.0893997 9.95535 0.0693426 9.87149C0.0492856 9.78764 0.0459411 9.70066 0.0595001 9.61551C0.182293 8.8506 0.487703 8.12657 0.949841 7.50481C1.41198 6.88304 2.01722 6.38186 2.71425 6.04376C2.40946 5.75758 2.16663 5.4119 2.00078 5.02812C1.83492 4.64433 1.74957 4.2306 1.75 3.81251ZM9.625 2.50001C10.1334 2.50037 10.6307 2.64829 11.0567 2.92583C11.4826 3.20337 11.8188 3.59858 12.0245 4.0635C12.2302 4.52842 12.2965 5.04305 12.2154 5.54493C12.1343 6.0468 11.9092 6.51433 11.5675 6.89076C12.1001 7.15517 12.5733 7.52517 12.9584 7.97825C13.3435 8.43133 13.6324 8.95801 13.8075 9.52626C13.8422 9.63657 13.8471 9.7541 13.8216 9.8669C13.7962 9.97971 13.7414 10.0838 13.6628 10.1686C13.5841 10.2533 13.4845 10.3158 13.3739 10.3496C13.2633 10.3834 13.1457 10.3873 13.0331 10.361C12.9206 10.3348 12.817 10.2794 12.7327 10.2005C12.6484 10.1216 12.5863 10.0218 12.5527 9.91126C12.3959 9.40395 12.1102 8.946 11.7234 8.58221C11.3366 8.21842 10.862 7.96122 10.346 7.83576C10.2027 7.80117 10.0752 7.71935 9.98413 7.60347C9.89301 7.48759 9.84356 7.34442 9.84375 7.19701V6.88901C9.84367 6.76683 9.8777 6.64706 9.94201 6.54318C10.0063 6.43929 10.0984 6.35542 10.2078 6.30101C10.473 6.16955 10.686 5.95226 10.8122 5.68444C10.9384 5.41662 10.9704 5.11401 10.9029 4.82575C10.8354 4.53749 10.6724 4.28052 10.4404 4.09658C10.2084 3.91264 9.92106 3.81253 9.625 3.81251C9.45095 3.81251 9.28403 3.74337 9.16096 3.6203C9.03789 3.49723 8.96875 3.33031 8.96875 3.15626C8.96875 2.98221 9.03789 2.81529 9.16096 2.69222C9.28403 2.56915 9.45095 2.50001 9.625 2.50001ZM4.8125 2.06251C4.57945 2.05724 4.3477 2.09858 4.13085 2.18411C3.914 2.26964 3.71643 2.39763 3.54972 2.56056C3.38302 2.7235 3.25055 2.9181 3.16009 3.13294C3.06962 3.34778 3.02299 3.57852 3.02294 3.81163C3.02288 4.04473 3.06939 4.2755 3.15975 4.49038C3.2501 4.70527 3.38248 4.89993 3.5491 5.06295C3.71572 5.22597 3.91323 5.35406 4.13004 5.4397C4.34685 5.52533 4.57858 5.56679 4.81163 5.56164C5.26887 5.55153 5.70398 5.36282 6.02382 5.0359C6.34367 4.70899 6.52282 4.26986 6.52294 3.8125C6.52305 3.35515 6.34412 2.91592 6.02444 2.58885C5.70476 2.26178 5.26974 2.07285 4.8125 2.06251Z" fill="#676987"/>
</svg>
