<svg width="14" height="13" viewBox="0 0 14 13" fill="none" xmlns="http://www.w3.org/2000/svg">
<path d="M3.52498 13C4.58572 13 5.50298 12.6465 6.24822 11.95C7.03036 11.2189 7.4371 10.0921 7.32845 9.02449L13.2931 3.44952C13.7003 3.06816 13.9288 2.55132 13.9286 2.01255C13.9283 1.47378 13.6992 0.957134 13.2917 0.576114C12.4713 -0.192038 11.0393 -0.192038 10.2188 0.576114L4.03132 6.35939C2.69896 6.4694 1.37983 7.34952 1.37983 8.91057C1.37983 9.10781 1.39446 9.29334 1.40908 9.47041C1.4648 10.1416 1.485 10.3935 0.384562 10.9078C0.276475 10.9584 0.184351 11.0345 0.117236 11.1285C0.050121 11.2226 0.0103241 11.3313 0.00175347 11.444C-0.00681714 11.5568 0.0161334 11.6696 0.068351 11.7716C0.120569 11.8735 0.200258 11.961 0.299592 12.0255C0.362275 12.0645 1.82697 13 3.52498 13C3.52429 13 3.52429 13 3.52498 13ZM11.2037 1.49594C11.3523 1.36269 11.5503 1.2884 11.7562 1.28864C11.9622 1.28888 12.16 1.36365 12.3083 1.49725C12.3807 1.56495 12.4382 1.64533 12.4774 1.73379C12.5166 1.82225 12.5368 1.91707 12.5368 2.01282C12.5368 2.10857 12.5166 2.20339 12.4774 2.29185C12.4382 2.38031 12.3807 2.46069 12.3083 2.52839L6.96489 7.52268L5.86028 6.49024L11.2037 1.49594ZM2.79856 9.3695C2.78602 9.22369 2.77279 9.07136 2.77279 8.90991C2.77279 7.90416 3.7792 7.63856 4.312 7.63856C4.55995 7.63856 4.79884 7.68608 4.98341 7.77266C5.64158 8.08187 5.86097 8.61437 5.92853 9.00691C6.05181 9.71648 5.7774 10.5484 5.2627 11.0295C4.78143 11.4793 4.2131 11.698 3.52498 11.698C3.00262 11.698 2.4942 11.5705 2.07979 11.4201C2.83338 10.7867 2.86054 10.1253 2.79856 9.3695Z" fill="#676987"/>
</svg>
